# xmcd
#
# Track frame offsets: 
#        150
#        25825
#        49218
#        81835
#        104998
#        125693
#        136623
#        148308
#
# Disc length: 2151 seconds
#
# Revision: 3
# Processed by: cddbd v1.5.2PL0 Copyright (c) Steve Scherf et al.
# Submitted via: ExactAudioCopy v0.95b3
#
DISCID=76086508
DTITLE=League Unlimited Orchestra - Love And Dancing
DYEAR=1982
DGENRE=Synthpop
TTITLE0=Hard Times
TTITLE1=Love Action (I Believe In Love)
TTITLE2=Don't You Want Me
TTITLE3=Things That Dreams Are Made Of
TTITLE4=Do Or Die
TTITLE5=Seconds
TTITLE6=Open your Heart
TTITLE7=The Sound Of The Crowd
EXTD=The League Unlimited Orchestra: instrumental version of previousl
EXTD=y released songs, specially remixed and produced by Martin Rushen
EXTD=t. (c)1982.
EXTT0=(Oakey/Wright/Callis)
EXTT1=(Oakey/Burden)
EXTT2=(Callis/Oakey/Wright)
EXTT3=(Oakey/Wright)
EXTT4=(Burden/Oakey)
EXTT5=(Callis/Oakey/Wright)
EXTT6=(Oakey/Callis)
EXTT7=(Burden/Oakey)
PLAYORDER=
